<?xml version="1.0" encoding="utf-8" standalone="no"?>
<!DOCTYPE svg PUBLIC "-//W3C//DTD SVG 1.1//EN"
  "http://www.w3.org/Graphics/SVG/1.1/DTD/svg11.dtd">
<!-- Created with matplotlib (https://matplotlib.org/) -->
<svg height="575.28pt" version="1.1" viewBox="0 0 699.84 575.28" width="699.84pt" xmlns="http://www.w3.org/2000/svg" xmlns:xlink="http://www.w3.org/1999/xlink">
 <defs>
  <style type="text/css">
*{stroke-linecap:butt;stroke-linejoin:round;}
  </style>
 </defs>
 <g id="figure_1">
  <g id="patch_1">
   <path d="M 0 575.28 
L 699.84 575.28 
L 699.84 0 
L 0 0 
z
" style="fill:#ffffff;"/>
  </g>
  <g id="axes_1">
   <g id="patch_2">
    <path d="M 87.48 511.9992 
L 629.856 511.9992 
L 629.856 69.0336 
L 87.48 69.0336 
z
" style="fill:#ffffff;"/>
   </g>
   <g id="matplotlib.axis_1">
    <g id="xtick_1">
     <g id="line2d_1">
      <defs>
       <path d="M 0 0 
L 0 3.5 
" id="m9d31e2226d" style="stroke:#000000;stroke-width:0.8;"/>
      </defs>
      <g>
       <use style="stroke:#000000;stroke-width:0.8;" x="110.865925" xlink:href="#m9d31e2226d" y="511.9992"/>
      </g>
     </g>
     <g id="text_1">
      <!-- 0 -->
      <defs>
       <path d="M 31.78125 66.40625 
Q 24.171875 66.40625 20.328125 58.90625 
Q 16.5 51.421875 16.5 36.375 
Q 16.5 21.390625 20.328125 13.890625 
Q 24.171875 6.390625 31.78125 6.390625 
Q 39.453125 6.390625 43.28125 13.890625 
Q 47.125 21.390625 47.125 36.375 
Q 47.125 51.421875 43.28125 58.90625 
Q 39.453125 66.40625 31.78125 66.40625 
z
M 31.78125 74.21875 
Q 44.046875 74.21875 50.515625 64.515625 
Q 56.984375 54.828125 56.984375 36.375 
Q 56.984375 17.96875 50.515625 8.265625 
Q 44.046875 -1.421875 31.78125 -1.421875 
Q 19.53125 -1.421875 13.0625 8.265625 
Q 6.59375 17.96875 6.59375 36.375 
Q 6.59375 54.828125 13.0625 64.515625 
Q 19.53125 74.21875 31.78125 74.21875 
z
" id="DejaVuSans-48"/>
      </defs>
      <g transform="translate(107.684675 526.597638)scale(0.1 -0.1)">
       <use xlink:href="#DejaVuSans-48"/>
      </g>
     </g>
    </g>
    <g id="xtick_2">
     <g id="line2d_2">
      <g>
       <use style="stroke:#000000;stroke-width:0.8;" x="174.242415" xlink:href="#m9d31e2226d" y="511.9992"/>
      </g>
     </g>
     <g id="text_2">
      <!-- 50000 -->
      <defs>
       <path d="M 10.796875 72.90625 
L 49.515625 72.90625 
L 49.515625 64.59375 
L 19.828125 64.59375 
L 19.828125 46.734375 
Q 21.96875 47.46875 24.109375 47.828125 
Q 26.265625 48.1875 28.421875 48.1875 
Q 40.625 48.1875 47.75 41.5 
Q 54.890625 34.8125 54.890625 23.390625 
Q 54.890625 11.625 47.5625 5.09375 
Q 40.234375 -1.421875 26.90625 -1.421875 
Q 22.3125 -1.421875 17.546875 -0.640625 
Q 12.796875 0.140625 7.71875 1.703125 
L 7.71875 11.625 
Q 12.109375 9.234375 16.796875 8.0625 
Q 21.484375 6.890625 26.703125 6.890625 
Q 35.15625 6.890625 40.078125 11.328125 
Q 45.015625 15.765625 45.015625 23.390625 
Q 45.015625 31 40.078125 35.4375 
Q 35.15625 39.890625 26.703125 39.890625 
Q 22.75 39.890625 18.8125 39.015625 
Q 14.890625 38.140625 10.796875 36.28125 
z
" id="DejaVuSans-53"/>
      </defs>
      <g transform="translate(158.336165 526.597638)scale(0.1 -0.1)">
       <use xlink:href="#DejaVuSans-53"/>
       <use x="63.623047" xlink:href="#DejaVuSans-48"/>
       <use x="127.246094" xlink:href="#DejaVuSans-48"/>
       <use x="190.869141" xlink:href="#DejaVuSans-48"/>
       <use x="254.492188" xlink:href="#DejaVuSans-48"/>
      </g>
     </g>
    </g>
    <g id="xtick_3">
     <g id="line2d_3">
      <g>
       <use style="stroke:#000000;stroke-width:0.8;" x="237.618904" xlink:href="#m9d31e2226d" y="511.9992"/>
      </g>
     </g>
     <g id="text_3">
      <!-- 100000 -->
      <defs>
       <path d="M 12.40625 8.296875 
L 28.515625 8.296875 
L 28.515625 63.921875 
L 10.984375 60.40625 
L 10.984375 69.390625 
L 28.421875 72.90625 
L 38.28125 72.90625 
L 38.28125 8.296875 
L 54.390625 8.296875 
L 54.390625 0 
L 12.40625 0 
z
" id="DejaVuSans-49"/>
      </defs>
      <g transform="translate(218.531404 526.597638)scale(0.1 -0.1)">
       <use xlink:href="#DejaVuSans-49"/>
       <use x="63.623047" xlink:href="#DejaVuSans-48"/>
       <use x="127.246094" xlink:href="#DejaVuSans-48"/>
       <use x="190.869141" xlink:href="#DejaVuSans-48"/>
       <use x="254.492188" xlink:href="#DejaVuSans-48"/>
       <use x="318.115234" xlink:href="#DejaVuSans-48"/>
      </g>
     </g>
    </g>
    <g id="xtick_4">
     <g id="line2d_4">
      <g>
       <use style="stroke:#000000;stroke-width:0.8;" x="300.995394" xlink:href="#m9d31e2226d" y="511.9992"/>
      </g>
     </g>
     <g id="text_4">
      <!-- 150000 -->
      <g transform="translate(281.907894 526.597638)scale(0.1 -0.1)">
       <use xlink:href="#DejaVuSans-49"/>
       <use x="63.623047" xlink:href="#DejaVuSans-53"/>
       <use x="127.246094" xlink:href="#DejaVuSans-48"/>
       <use x="190.869141" xlink:href="#DejaVuSans-48"/>
       <use x="254.492188" xlink:href="#DejaVuSans-48"/>
       <use x="318.115234" xlink:href="#DejaVuSans-48"/>
      </g>
     </g>
    </g>
    <g id="xtick_5">
     <g id="line2d_5">
      <g>
       <use style="stroke:#000000;stroke-width:0.8;" x="364.371884" xlink:href="#m9d31e2226d" y="511.9992"/>
      </g>
     </g>
     <g id="text_5">
      <!-- 200000 -->
      <defs>
       <path d="M 19.1875 8.296875 
L 53.609375 8.296875 
L 53.609375 0 
L 7.328125 0 
L 7.328125 8.296875 
Q 12.9375 14.109375 22.625 23.890625 
Q 32.328125 33.6875 34.8125 36.53125 
Q 39.546875 41.84375 41.421875 45.53125 
Q 43.3125 49.21875 43.3125 52.78125 
Q 43.3125 58.59375 39.234375 62.25 
Q 35.15625 65.921875 28.609375 65.921875 
Q 23.96875 65.921875 18.8125 64.3125 
Q 13.671875 62.703125 7.8125 59.421875 
L 7.8125 69.390625 
Q 13.765625 71.78125 18.9375 73 
Q 24.125 74.21875 28.421875 74.21875 
Q 39.75 74.21875 46.484375 68.546875 
Q 53.21875 62.890625 53.21875 53.421875 
Q 53.21875 48.921875 51.53125 44.890625 
Q 49.859375 40.875 45.40625 35.40625 
Q 44.1875 33.984375 37.640625 27.21875 
Q 31.109375 20.453125 19.1875 8.296875 
z
" id="DejaVuSans-50"/>
      </defs>
      <g transform="translate(345.284384 526.597638)scale(0.1 -0.1)">
       <use xlink:href="#DejaVuSans-50"/>
       <use x="63.623047" xlink:href="#DejaVuSans-48"/>
       <use x="127.246094" xlink:href="#DejaVuSans-48"/>
       <use x="190.869141" xlink:href="#DejaVuSans-48"/>
       <use x="254.492188" xlink:href="#DejaVuSans-48"/>
       <use x="318.115234" xlink:href="#DejaVuSans-48"/>
      </g>
     </g>
    </g>
    <g id="xtick_6">
     <g id="line2d_6">
      <g>
       <use style="stroke:#000000;stroke-width:0.8;" x="427.748374" xlink:href="#m9d31e2226d" y="511.9992"/>
      </g>
     </g>
     <g id="text_6">
      <!-- 250000 -->
      <g transform="translate(408.660874 526.597638)scale(0.1 -0.1)">
       <use xlink:href="#DejaVuSans-50"/>
       <use x="63.623047" xlink:href="#DejaVuSans-53"/>
       <use x="127.246094" xlink:href="#DejaVuSans-48"/>
       <use x="190.869141" xlink:href="#DejaVuSans-48"/>
       <use x="254.492188" xlink:href="#DejaVuSans-48"/>
       <use x="318.115234" xlink:href="#DejaVuSans-48"/>
      </g>
     </g>
    </g>
    <g id="xtick_7">
     <g id="line2d_7">
      <g>
       <use style="stroke:#000000;stroke-width:0.8;" x="491.124864" xlink:href="#m9d31e2226d" y="511.9992"/>
      </g>
     </g>
     <g id="text_7">
      <!-- 300000 -->
      <defs>
       <path d="M 40.578125 39.3125 
Q 47.65625 37.796875 51.625 33 
Q 55.609375 28.21875 55.609375 21.1875 
Q 55.609375 10.40625 48.1875 4.484375 
Q 40.765625 -1.421875 27.09375 -1.421875 
Q 22.515625 -1.421875 17.65625 -0.515625 
Q 12.796875 0.390625 7.625 2.203125 
L 7.625 11.71875 
Q 11.71875 9.328125 16.59375 8.109375 
Q 21.484375 6.890625 26.8125 6.890625 
Q 36.078125 6.890625 40.9375 10.546875 
Q 45.796875 14.203125 45.796875 21.1875 
Q 45.796875 27.640625 41.28125 31.265625 
Q 36.765625 34.90625 28.71875 34.90625 
L 20.21875 34.90625 
L 20.21875 43.015625 
L 29.109375 43.015625 
Q 36.375 43.015625 40.234375 45.921875 
Q 44.09375 48.828125 44.09375 54.296875 
Q 44.09375 59.90625 40.109375 62.90625 
Q 36.140625 65.921875 28.71875 65.921875 
Q 24.65625 65.921875 20.015625 65.03125 
Q 15.375 64.15625 9.8125 62.3125 
L 9.8125 71.09375 
Q 15.4375 72.65625 20.34375 73.4375 
Q 25.25 74.21875 29.59375 74.21875 
Q 40.828125 74.21875 47.359375 69.109375 
Q 53.90625 64.015625 53.90625 55.328125 
Q 53.90625 49.265625 50.4375 45.09375 
Q 46.96875 40.921875 40.578125 39.3125 
z
" id="DejaVuSans-51"/>
      </defs>
      <g transform="translate(472.037364 526.597638)scale(0.1 -0.1)">
       <use xlink:href="#DejaVuSans-51"/>
       <use x="63.623047" xlink:href="#DejaVuSans-48"/>
       <use x="127.246094" xlink:href="#DejaVuSans-48"/>
       <use x="190.869141" xlink:href="#DejaVuSans-48"/>
       <use x="254.492188" xlink:href="#DejaVuSans-48"/>
       <use x="318.115234" xlink:href="#DejaVuSans-48"/>
      </g>
     </g>
    </g>
    <g id="xtick_8">
     <g id="line2d_8">
      <g>
       <use style="stroke:#000000;stroke-width:0.8;" x="554.501354" xlink:href="#m9d31e2226d" y="511.9992"/>
      </g>
     </g>
     <g id="text_8">
      <!-- 350000 -->
      <g transform="translate(535.413854 526.597638)scale(0.1 -0.1)">
       <use xlink:href="#DejaVuSans-51"/>
       <use x="63.623047" xlink:href="#DejaVuSans-53"/>
       <use x="127.246094" xlink:href="#DejaVuSans-48"/>
       <use x="190.869141" xlink:href="#DejaVuSans-48"/>
       <use x="254.492188" xlink:href="#DejaVuSans-48"/>
       <use x="318.115234" xlink:href="#DejaVuSans-48"/>
      </g>
     </g>
    </g>
    <g id="xtick_9">
     <g id="line2d_9">
      <g>
       <use style="stroke:#000000;stroke-width:0.8;" x="617.877843" xlink:href="#m9d31e2226d" y="511.9992"/>
      </g>
     </g>
     <g id="text_9">
      <!-- 400000 -->
      <defs>
       <path d="M 37.796875 64.3125 
L 12.890625 25.390625 
L 37.796875 25.390625 
z
M 35.203125 72.90625 
L 47.609375 72.90625 
L 47.609375 25.390625 
L 58.015625 25.390625 
L 58.015625 17.1875 
L 47.609375 17.1875 
L 47.609375 0 
L 37.796875 0 
L 37.796875 17.1875 
L 4.890625 17.1875 
L 4.890625 26.703125 
z
" id="DejaVuSans-52"/>
      </defs>
      <g transform="translate(598.790343 526.597638)scale(0.1 -0.1)">
       <use xlink:href="#DejaVuSans-52"/>
       <use x="63.623047" xlink:href="#DejaVuSans-48"/>
       <use x="127.246094" xlink:href="#DejaVuSans-48"/>
       <use x="190.869141" xlink:href="#DejaVuSans-48"/>
       <use x="254.492188" xlink:href="#DejaVuSans-48"/>
       <use x="318.115234" xlink:href="#DejaVuSans-48"/>
      </g>
     </g>
    </g>
    <g id="text_10">
     <!-- No. Samples Trained -->
     <defs>
      <path d="M 9.8125 72.90625 
L 23.09375 72.90625 
L 55.421875 11.921875 
L 55.421875 72.90625 
L 64.984375 72.90625 
L 64.984375 0 
L 51.703125 0 
L 19.390625 60.984375 
L 19.390625 0 
L 9.8125 0 
z
" id="DejaVuSans-78"/>
      <path d="M 30.609375 48.390625 
Q 23.390625 48.390625 19.1875 42.75 
Q 14.984375 37.109375 14.984375 27.296875 
Q 14.984375 17.484375 19.15625 11.84375 
Q 23.34375 6.203125 30.609375 6.203125 
Q 37.796875 6.203125 41.984375 11.859375 
Q 46.1875 17.53125 46.1875 27.296875 
Q 46.1875 37.015625 41.984375 42.703125 
Q 37.796875 48.390625 30.609375 48.390625 
z
M 30.609375 56 
Q 42.328125 56 49.015625 48.375 
Q 55.71875 40.765625 55.71875 27.296875 
Q 55.71875 13.875 49.015625 6.21875 
Q 42.328125 -1.421875 30.609375 -1.421875 
Q 18.84375 -1.421875 12.171875 6.21875 
Q 5.515625 13.875 5.515625 27.296875 
Q 5.515625 40.765625 12.171875 48.375 
Q 18.84375 56 30.609375 56 
z
" id="DejaVuSans-111"/>
      <path d="M 10.6875 12.40625 
L 21 12.40625 
L 21 0 
L 10.6875 0 
z
" id="DejaVuSans-46"/>
      <path id="DejaVuSans-32"/>
      <path d="M 53.515625 70.515625 
L 53.515625 60.890625 
Q 47.90625 63.578125 42.921875 64.890625 
Q 37.9375 66.21875 33.296875 66.21875 
Q 25.25 66.21875 20.875 63.09375 
Q 16.5 59.96875 16.5 54.203125 
Q 16.5 49.359375 19.40625 46.890625 
Q 22.3125 44.4375 30.421875 42.921875 
L 36.375 41.703125 
Q 47.40625 39.59375 52.65625 34.296875 
Q 57.90625 29 57.90625 20.125 
Q 57.90625 9.515625 50.796875 4.046875 
Q 43.703125 -1.421875 29.984375 -1.421875 
Q 24.8125 -1.421875 18.96875 -0.25 
Q 13.140625 0.921875 6.890625 3.21875 
L 6.890625 13.375 
Q 12.890625 10.015625 18.65625 8.296875 
Q 24.421875 6.59375 29.984375 6.59375 
Q 38.421875 6.59375 43.015625 9.90625 
Q 47.609375 13.234375 47.609375 19.390625 
Q 47.609375 24.75 44.3125 27.78125 
Q 41.015625 30.8125 33.5 32.328125 
L 27.484375 33.5 
Q 16.453125 35.6875 11.515625 40.375 
Q 6.59375 45.0625 6.59375 53.421875 
Q 6.59375 63.09375 13.40625 68.65625 
Q 20.21875 74.21875 32.171875 74.21875 
Q 37.3125 74.21875 42.625 73.28125 
Q 47.953125 72.359375 53.515625 70.515625 
z
" id="DejaVuSans-83"/>
      <path d="M 34.28125 27.484375 
Q 23.390625 27.484375 19.1875 25 
Q 14.984375 22.515625 14.984375 16.5 
Q 14.984375 11.71875 18.140625 8.90625 
Q 21.296875 6.109375 26.703125 6.109375 
Q 34.1875 6.109375 38.703125 11.40625 
Q 43.21875 16.703125 43.21875 25.484375 
L 43.21875 27.484375 
z
M 52.203125 31.203125 
L 52.203125 0 
L 43.21875 0 
L 43.21875 8.296875 
Q 40.140625 3.328125 35.546875 0.953125 
Q 30.953125 -1.421875 24.3125 -1.421875 
Q 15.921875 -1.421875 10.953125 3.296875 
Q 6 8.015625 6 15.921875 
Q 6 25.140625 12.171875 29.828125 
Q 18.359375 34.515625 30.609375 34.515625 
L 43.21875 34.515625 
L 43.21875 35.40625 
Q 43.21875 41.609375 39.140625 45 
Q 35.0625 48.390625 27.6875 48.390625 
Q 23 48.390625 18.546875 47.265625 
Q 14.109375 46.140625 10.015625 43.890625 
L 10.015625 52.203125 
Q 14.9375 54.109375 19.578125 55.046875 
Q 24.21875 56 28.609375 56 
Q 40.484375 56 46.34375 49.84375 
Q 52.203125 43.703125 52.203125 31.203125 
z
" id="DejaVuSans-97"/>
      <path d="M 52 44.1875 
Q 55.375 50.25 60.0625 53.125 
Q 64.75 56 71.09375 56 
Q 79.640625 56 84.28125 50.015625 
Q 88.921875 44.046875 88.921875 33.015625 
L 88.921875 0 
L 79.890625 0 
L 79.890625 32.71875 
Q 79.890625 40.578125 77.09375 44.375 
Q 74.3125 48.1875 68.609375 48.1875 
Q 61.625 48.1875 57.5625 43.546875 
Q 53.515625 38.921875 53.515625 30.90625 
L 53.515625 0 
L 44.484375 0 
L 44.484375 32.71875 
Q 44.484375 40.625 41.703125 44.40625 
Q 38.921875 48.1875 33.109375 48.1875 
Q 26.21875 48.1875 22.15625 43.53125 
Q 18.109375 38.875 18.109375 30.90625 
L 18.109375 0 
L 9.078125 0 
L 9.078125 54.6875 
L 18.109375 54.6875 
L 18.109375 46.1875 
Q 21.1875 51.21875 25.484375 53.609375 
Q 29.78125 56 35.6875 56 
Q 41.65625 56 45.828125 52.96875 
Q 50 49.953125 52 44.1875 
z
" id="DejaVuSans-109"/>
      <path d="M 18.109375 8.203125 
L 18.109375 -20.796875 
L 9.078125 -20.796875 
L 9.078125 54.6875 
L 18.109375 54.6875 
L 18.109375 46.390625 
Q 20.953125 51.265625 25.265625 53.625 
Q 29.59375 56 35.59375 56 
Q 45.5625 56 51.78125 48.09375 
Q 58.015625 40.1875 58.015625 27.296875 
Q 58.015625 14.40625 51.78125 6.484375 
Q 45.5625 -1.421875 35.59375 -1.421875 
Q 29.59375 -1.421875 25.265625 0.953125 
Q 20.953125 3.328125 18.109375 8.203125 
z
M 48.6875 27.296875 
Q 48.6875 37.203125 44.609375 42.84375 
Q 40.53125 48.484375 33.40625 48.484375 
Q 26.265625 48.484375 22.1875 42.84375 
Q 18.109375 37.203125 18.109375 27.296875 
Q 18.109375 17.390625 22.1875 11.75 
Q 26.265625 6.109375 33.40625 6.109375 
Q 40.53125 6.109375 44.609375 11.75 
Q 48.6875 17.390625 48.6875 27.296875 
z
" id="DejaVuSans-112"/>
      <path d="M 9.421875 75.984375 
L 18.40625 75.984375 
L 18.40625 0 
L 9.421875 0 
z
" id="DejaVuSans-108"/>
      <path d="M 56.203125 29.59375 
L 56.203125 25.203125 
L 14.890625 25.203125 
Q 15.484375 15.921875 20.484375 11.0625 
Q 25.484375 6.203125 34.421875 6.203125 
Q 39.59375 6.203125 44.453125 7.46875 
Q 49.3125 8.734375 54.109375 11.28125 
L 54.109375 2.78125 
Q 49.265625 0.734375 44.1875 -0.34375 
Q 39.109375 -1.421875 33.890625 -1.421875 
Q 20.796875 -1.421875 13.15625 6.1875 
Q 5.515625 13.8125 5.515625 26.8125 
Q 5.515625 40.234375 12.765625 48.109375 
Q 20.015625 56 32.328125 56 
Q 43.359375 56 49.78125 48.890625 
Q 56.203125 41.796875 56.203125 29.59375 
z
M 47.21875 32.234375 
Q 47.125 39.59375 43.09375 43.984375 
Q 39.0625 48.390625 32.421875 48.390625 
Q 24.90625 48.390625 20.390625 44.140625 
Q 15.875 39.890625 15.1875 32.171875 
z
" id="DejaVuSans-101"/>
      <path d="M 44.28125 53.078125 
L 44.28125 44.578125 
Q 40.484375 46.53125 36.375 47.5 
Q 32.28125 48.484375 27.875 48.484375 
Q 21.1875 48.484375 17.84375 46.4375 
Q 14.5 44.390625 14.5 40.28125 
Q 14.5 37.15625 16.890625 35.375 
Q 19.28125 33.59375 26.515625 31.984375 
L 29.59375 31.296875 
Q 39.15625 29.25 43.1875 25.515625 
Q 47.21875 21.78125 47.21875 15.09375 
Q 47.21875 7.46875 41.1875 3.015625 
Q 35.15625 -1.421875 24.609375 -1.421875 
Q 20.21875 -1.421875 15.453125 -0.5625 
Q 10.6875 0.296875 5.421875 2 
L 5.421875 11.28125 
Q 10.40625 8.6875 15.234375 7.390625 
Q 20.0625 6.109375 24.8125 6.109375 
Q 31.15625 6.109375 34.5625 8.28125 
Q 37.984375 10.453125 37.984375 14.40625 
Q 37.984375 18.0625 35.515625 20.015625 
Q 33.0625 21.96875 24.703125 23.78125 
L 21.578125 24.515625 
Q 13.234375 26.265625 9.515625 29.90625 
Q 5.8125 33.546875 5.8125 39.890625 
Q 5.8125 47.609375 11.28125 51.796875 
Q 16.75 56 26.8125 56 
Q 31.78125 56 36.171875 55.265625 
Q 40.578125 54.546875 44.28125 53.078125 
z
" id="DejaVuSans-115"/>
      <path d="M -0.296875 72.90625 
L 61.375 72.90625 
L 61.375 64.59375 
L 35.5 64.59375 
L 35.5 0 
L 25.59375 0 
L 25.59375 64.59375 
L -0.296875 64.59375 
z
" id="DejaVuSans-84"/>
      <path d="M 41.109375 46.296875 
Q 39.59375 47.171875 37.8125 47.578125 
Q 36.03125 48 33.890625 48 
Q 26.265625 48 22.1875 43.046875 
Q 18.109375 38.09375 18.109375 28.8125 
L 18.109375 0 
L 9.078125 0 
L 9.078125 54.6875 
L 18.109375 54.6875 
L 18.109375 46.1875 
Q 20.953125 51.171875 25.484375 53.578125 
Q 30.03125 56 36.53125 56 
Q 37.453125 56 38.578125 55.875 
Q 39.703125 55.765625 41.0625 55.515625 
z
" id="DejaVuSans-114"/>
      <path d="M 9.421875 54.6875 
L 18.40625 54.6875 
L 18.40625 0 
L 9.421875 0 
z
M 9.421875 75.984375 
L 18.40625 75.984375 
L 18.40625 64.59375 
L 9.421875 64.59375 
z
" id="DejaVuSans-105"/>
      <path d="M 54.890625 33.015625 
L 54.890625 0 
L 45.90625 0 
L 45.90625 32.71875 
Q 45.90625 40.484375 42.875 44.328125 
Q 39.84375 48.1875 33.796875 48.1875 
Q 26.515625 48.1875 22.3125 43.546875 
Q 18.109375 38.921875 18.109375 30.90625 
L 18.109375 0 
L 9.078125 0 
L 9.078125 54.6875 
L 18.109375 54.6875 
L 18.109375 46.1875 
Q 21.34375 51.125 25.703125 53.5625 
Q 30.078125 56 35.796875 56 
Q 45.21875 56 50.046875 50.171875 
Q 54.890625 44.34375 54.890625 33.015625 
z
" id="DejaVuSans-110"/>
      <path d="M 45.40625 46.390625 
L 45.40625 75.984375 
L 54.390625 75.984375 
L 54.390625 0 
L 45.40625 0 
L 45.40625 8.203125 
Q 42.578125 3.328125 38.25 0.953125 
Q 33.9375 -1.421875 27.875 -1.421875 
Q 17.96875 -1.421875 11.734375 6.484375 
Q 5.515625 14.40625 5.515625 27.296875 
Q 5.515625 40.1875 11.734375 48.09375 
Q 17.96875 56 27.875 56 
Q 33.9375 56 38.25 53.625 
Q 42.578125 51.265625 45.40625 46.390625 
z
M 14.796875 27.296875 
Q 14.796875 17.390625 18.875 11.75 
Q 22.953125 6.109375 30.078125 6.109375 
Q 37.203125 6.109375 41.296875 11.75 
Q 45.40625 17.390625 45.40625 27.296875 
Q 45.40625 37.203125 41.296875 42.84375 
Q 37.203125 48.484375 30.078125 48.484375 
Q 22.953125 48.484375 18.875 42.84375 
Q 14.796875 37.203125 14.796875 27.296875 
z
" id="DejaVuSans-100"/>
     </defs>
     <g transform="translate(306.777375 540.275762)scale(0.1 -0.1)">
      <use xlink:href="#DejaVuSans-78"/>
      <use x="74.804688" xlink:href="#DejaVuSans-111"/>
      <use x="135.970703" xlink:href="#DejaVuSans-46"/>
      <use x="167.757812" xlink:href="#DejaVuSans-32"/>
      <use x="199.544922" xlink:href="#DejaVuSans-83"/>
      <use x="263.021484" xlink:href="#DejaVuSans-97"/>
      <use x="324.300781" xlink:href="#DejaVuSans-109"/>
      <use x="421.712891" xlink:href="#DejaVuSans-112"/>
      <use x="485.189453" xlink:href="#DejaVuSans-108"/>
      <use x="512.972656" xlink:href="#DejaVuSans-101"/>
      <use x="574.496094" xlink:href="#DejaVuSans-115"/>
      <use x="626.595703" xlink:href="#DejaVuSans-32"/>
      <use x="658.382812" xlink:href="#DejaVuSans-84"/>
      <use x="719.248047" xlink:href="#DejaVuSans-114"/>
      <use x="760.361328" xlink:href="#DejaVuSans-97"/>
      <use x="821.640625" xlink:href="#DejaVuSans-105"/>
      <use x="849.423828" xlink:href="#DejaVuSans-110"/>
      <use x="912.802734" xlink:href="#DejaVuSans-101"/>
      <use x="974.326172" xlink:href="#DejaVuSans-100"/>
     </g>
    </g>
   </g>
   <g id="matplotlib.axis_2">
    <g id="ytick_1">
     <g id="line2d_10">
      <defs>
       <path d="M 0 0 
L -3.5 0 
" id="mf9a3471cfd" style="stroke:#000000;stroke-width:0.8;"/>
      </defs>
      <g>
       <use style="stroke:#000000;stroke-width:0.8;" x="87.48" xlink:href="#mf9a3471cfd" y="443.426909"/>
      </g>
     </g>
     <g id="text_11">
      <!-- 0.2 -->
      <g transform="translate(64.576875 447.226128)scale(0.1 -0.1)">
       <use xlink:href="#DejaVuSans-48"/>
       <use x="63.623047" xlink:href="#DejaVuSans-46"/>
       <use x="95.410156" xlink:href="#DejaVuSans-50"/>
      </g>
     </g>
    </g>
    <g id="ytick_2">
     <g id="line2d_11">
      <g>
       <use style="stroke:#000000;stroke-width:0.8;" x="87.48" xlink:href="#mf9a3471cfd" y="348.451438"/>
      </g>
     </g>
     <g id="text_12">
      <!-- 0.4 -->
      <g transform="translate(64.576875 352.250656)scale(0.1 -0.1)">
       <use xlink:href="#DejaVuSans-48"/>
       <use x="63.623047" xlink:href="#DejaVuSans-46"/>
       <use x="95.410156" xlink:href="#DejaVuSans-52"/>
      </g>
     </g>
    </g>
    <g id="ytick_3">
     <g id="line2d_12">
      <g>
       <use style="stroke:#000000;stroke-width:0.8;" x="87.48" xlink:href="#mf9a3471cfd" y="253.475966"/>
      </g>
     </g>
     <g id="text_13">
      <!-- 0.6 -->
      <defs>
       <path d="M 33.015625 40.375 
Q 26.375 40.375 22.484375 35.828125 
Q 18.609375 31.296875 18.609375 23.390625 
Q 18.609375 15.53125 22.484375 10.953125 
Q 26.375 6.390625 33.015625 6.390625 
Q 39.65625 6.390625 43.53125 10.953125 
Q 47.40625 15.53125 47.40625 23.390625 
Q 47.40625 31.296875 43.53125 35.828125 
Q 39.65625 40.375 33.015625 40.375 
z
M 52.59375 71.296875 
L 52.59375 62.3125 
Q 48.875 64.0625 45.09375 64.984375 
Q 41.3125 65.921875 37.59375 65.921875 
Q 27.828125 65.921875 22.671875 59.328125 
Q 17.53125 52.734375 16.796875 39.40625 
Q 19.671875 43.65625 24.015625 45.921875 
Q 28.375 48.1875 33.59375 48.1875 
Q 44.578125 48.1875 50.953125 41.515625 
Q 57.328125 34.859375 57.328125 23.390625 
Q 57.328125 12.15625 50.6875 5.359375 
Q 44.046875 -1.421875 33.015625 -1.421875 
Q 20.359375 -1.421875 13.671875 8.265625 
Q 6.984375 17.96875 6.984375 36.375 
Q 6.984375 53.65625 15.1875 63.9375 
Q 23.390625 74.21875 37.203125 74.21875 
Q 40.921875 74.21875 44.703125 73.484375 
Q 48.484375 72.75 52.59375 71.296875 
z
" id="DejaVuSans-54"/>
      </defs>
      <g transform="translate(64.576875 257.275185)scale(0.1 -0.1)">
       <use xlink:href="#DejaVuSans-48"/>
       <use x="63.623047" xlink:href="#DejaVuSans-46"/>
       <use x="95.410156" xlink:href="#DejaVuSans-54"/>
      </g>
     </g>
    </g>
    <g id="ytick_4">
     <g id="line2d_13">
      <g>
       <use style="stroke:#000000;stroke-width:0.8;" x="87.48" xlink:href="#mf9a3471cfd" y="158.500494"/>
      </g>
     </g>
     <g id="text_14">
      <!-- 0.8 -->
      <defs>
       <path d="M 31.78125 34.625 
Q 24.75 34.625 20.71875 30.859375 
Q 16.703125 27.09375 16.703125 20.515625 
Q 16.703125 13.921875 20.71875 10.15625 
Q 24.75 6.390625 31.78125 6.390625 
Q 38.8125 6.390625 42.859375 10.171875 
Q 46.921875 13.96875 46.921875 20.515625 
Q 46.921875 27.09375 42.890625 30.859375 
Q 38.875 34.625 31.78125 34.625 
z
M 21.921875 38.8125 
Q 15.578125 40.375 12.03125 44.71875 
Q 8.5 49.078125 8.5 55.328125 
Q 8.5 64.0625 14.71875 69.140625 
Q 20.953125 74.21875 31.78125 74.21875 
Q 42.671875 74.21875 48.875 69.140625 
Q 55.078125 64.0625 55.078125 55.328125 
Q 55.078125 49.078125 51.53125 44.71875 
Q 48 40.375 41.703125 38.8125 
Q 48.828125 37.15625 52.796875 32.3125 
Q 56.78125 27.484375 56.78125 20.515625 
Q 56.78125 9.90625 50.3125 4.234375 
Q 43.84375 -1.421875 31.78125 -1.421875 
Q 19.734375 -1.421875 13.25 4.234375 
Q 6.78125 9.90625 6.78125 20.515625 
Q 6.78125 27.484375 10.78125 32.3125 
Q 14.796875 37.15625 21.921875 38.8125 
z
M 18.3125 54.390625 
Q 18.3125 48.734375 21.84375 45.5625 
Q 25.390625 42.390625 31.78125 42.390625 
Q 38.140625 42.390625 41.71875 45.5625 
Q 45.3125 48.734375 45.3125 54.390625 
Q 45.3125 60.0625 41.71875 63.234375 
Q 38.140625 66.40625 31.78125 66.40625 
Q 25.390625 66.40625 21.84375 63.234375 
Q 18.3125 60.0625 18.3125 54.390625 
z
" id="DejaVuSans-56"/>
      </defs>
      <g transform="translate(64.576875 162.299713)scale(0.1 -0.1)">
       <use xlink:href="#DejaVuSans-48"/>
       <use x="63.623047" xlink:href="#DejaVuSans-46"/>
       <use x="95.410156" xlink:href="#DejaVuSans-56"/>
      </g>
     </g>
    </g>
    <g id="text_15">
     <!-- Accuracy -->
     <defs>
      <path d="M 34.1875 63.1875 
L 20.796875 26.90625 
L 47.609375 26.90625 
z
M 28.609375 72.90625 
L 39.796875 72.90625 
L 67.578125 0 
L 57.328125 0 
L 50.6875 18.703125 
L 17.828125 18.703125 
L 11.1875 0 
L 0.78125 0 
z
" id="DejaVuSans-65"/>
      <path d="M 48.78125 52.59375 
L 48.78125 44.1875 
Q 44.96875 46.296875 41.140625 47.34375 
Q 37.3125 48.390625 33.40625 48.390625 
Q 24.65625 48.390625 19.8125 42.84375 
Q 14.984375 37.3125 14.984375 27.296875 
Q 14.984375 17.28125 19.8125 11.734375 
Q 24.65625 6.203125 33.40625 6.203125 
Q 37.3125 6.203125 41.140625 7.25 
Q 44.96875 8.296875 48.78125 10.40625 
L 48.78125 2.09375 
Q 45.015625 0.34375 40.984375 -0.53125 
Q 36.96875 -1.421875 32.421875 -1.421875 
Q 20.0625 -1.421875 12.78125 6.34375 
Q 5.515625 14.109375 5.515625 27.296875 
Q 5.515625 40.671875 12.859375 48.328125 
Q 20.21875 56 33.015625 56 
Q 37.15625 56 41.109375 55.140625 
Q 45.0625 54.296875 48.78125 52.59375 
z
" id="DejaVuSans-99"/>
      <path d="M 8.5 21.578125 
L 8.5 54.6875 
L 17.484375 54.6875 
L 17.484375 21.921875 
Q 17.484375 14.15625 20.5 10.265625 
Q 23.53125 6.390625 29.59375 6.390625 
Q 36.859375 6.390625 41.078125 11.03125 
Q 45.3125 15.671875 45.3125 23.6875 
L 45.3125 54.6875 
L 54.296875 54.6875 
L 54.296875 0 
L 45.3125 0 
L 45.3125 8.40625 
Q 42.046875 3.421875 37.71875 1 
Q 33.40625 -1.421875 27.6875 -1.421875 
Q 18.265625 -1.421875 13.375 4.4375 
Q 8.5 10.296875 8.5 21.578125 
z
M 31.109375 56 
z
" id="DejaVuSans-117"/>
      <path d="M 32.171875 -5.078125 
Q 28.375 -14.84375 24.75 -17.8125 
Q 21.140625 -20.796875 15.09375 -20.796875 
L 7.90625 -20.796875 
L 7.90625 -13.28125 
L 13.1875 -13.28125 
Q 16.890625 -13.28125 18.9375 -11.515625 
Q 21 -9.765625 23.484375 -3.21875 
L 25.09375 0.875 
L 2.984375 54.6875 
L 12.5 54.6875 
L 29.59375 11.921875 
L 46.6875 54.6875 
L 56.203125 54.6875 
z
" id="DejaVuSans-121"/>
     </defs>
     <g transform="translate(58.497187 313.431244)rotate(-90)scale(0.1 -0.1)">
      <use xlink:href="#DejaVuSans-65"/>
      <use x="68.392578" xlink:href="#DejaVuSans-99"/>
      <use x="123.373047" xlink:href="#DejaVuSans-99"/>
      <use x="178.353516" xlink:href="#DejaVuSans-117"/>
      <use x="241.732422" xlink:href="#DejaVuSans-114"/>
      <use x="282.845703" xlink:href="#DejaVuSans-97"/>
      <use x="344.125" xlink:href="#DejaVuSans-99"/>
      <use x="399.105469" xlink:href="#DejaVuSans-121"/>
     </g>
    </g>
   </g>
   <g id="line2d_14">
    <path clip-path="url(#pa6224f0443)" d="M 112.133455 491.8644 
L 113.400984 476.668325 
L 114.668514 442.477155 
L 115.936044 438.678136 
L 117.203574 416.3589 
L 118.471104 396.414051 
L 119.738633 362.697758 
L 121.006163 345.602174 
L 122.273693 322.333183 
L 124.808753 288.616891 
L 126.076282 264.873023 
L 127.343812 257.749862 
L 128.611342 247.30256 
L 129.878872 227.832589 
L 131.146401 224.508447 
L 132.413931 212.636513 
L 136.216521 190.317277 
L 137.48405 190.792155 
L 138.75158 191.741909 
L 140.01911 165.148777 
L 141.28664 185.093626 
L 142.55417 164.6739 
L 143.821699 169.897551 
L 145.089229 166.098532 
L 146.356759 167.048287 
L 147.624289 153.751721 
L 148.891819 166.098532 
L 150.159348 150.902457 
L 151.426878 149.477825 
L 152.694408 154.226598 
L 153.961938 149.002947 
L 155.229468 149.002947 
L 156.496997 147.103438 
L 157.764527 139.980277 
L 159.032057 143.779296 
L 160.299587 132.857117 
L 161.567117 133.806872 
L 162.834646 137.131013 
L 164.102176 133.331994 
L 165.369706 138.555645 
L 166.637236 130.007853 
L 167.904766 138.555645 
L 169.172295 134.756626 
L 170.439825 137.131013 
L 171.707355 123.35957 
L 174.242415 144.254174 
L 175.509944 138.080768 
L 176.777474 130.007853 
L 178.045004 136.656136 
L 179.312534 126.208834 
L 180.580064 136.656136 
L 181.847593 129.532975 
L 183.115123 130.48273 
L 184.382653 125.733957 
L 185.650183 124.784202 
L 186.917713 131.907362 
L 188.185242 134.281749 
L 189.452772 120.035428 
L 190.720302 125.259079 
L 191.987832 120.510306 
L 193.255362 126.683711 
L 194.522891 126.208834 
L 195.790421 127.158589 
L 197.057951 126.208834 
L 198.325481 131.432485 
L 199.593011 119.560551 
L 200.86054 122.409815 
L 202.12807 122.884692 
L 203.3956 128.583221 
L 204.66313 122.409815 
L 205.930659 120.035428 
L 207.198189 112.912268 
L 208.465719 125.259079 
L 209.733249 116.236409 
L 211.000779 119.560551 
L 212.268308 114.3369 
L 213.535838 116.236409 
L 214.803368 120.985183 
L 216.070898 115.761532 
L 217.338428 123.834447 
L 218.605957 117.186164 
L 219.873487 117.661042 
L 221.141017 111.487636 
L 222.408547 117.661042 
L 223.676077 130.957608 
L 224.943606 119.560551 
L 226.211136 122.884692 
L 227.478666 121.934938 
L 228.746196 111.962513 
L 230.013726 114.811777 
L 231.281255 111.012758 
L 232.548785 115.286655 
L 233.816315 114.811777 
L 235.083845 110.063004 
L 236.351375 116.236409 
L 237.618904 124.309325 
L 238.886434 110.537881 
L 240.153964 117.661042 
L 241.421494 118.610796 
L 242.689024 118.135919 
L 243.956553 116.236409 
L 245.224083 119.085674 
L 246.491613 111.962513 
L 247.759143 115.286655 
L 249.026673 108.638372 
L 250.294202 116.711287 
L 251.561732 114.811777 
L 252.829262 115.286655 
L 254.096792 111.012758 
L 255.364322 112.912268 
L 256.631851 111.487636 
L 257.899381 119.560551 
L 259.166911 112.437391 
L 260.434441 107.688617 
L 261.701971 111.012758 
L 262.9695 110.537881 
L 264.23703 115.286655 
L 265.50456 109.113249 
L 266.77209 113.387145 
L 268.03962 114.3369 
L 270.574679 109.588126 
L 271.842209 109.113249 
L 273.109739 121.934938 
L 274.377269 119.085674 
L 275.644798 115.761532 
L 276.912328 115.761532 
L 278.179858 105.31423 
L 279.447388 106.738862 
L 280.714918 109.588126 
L 281.982447 107.21374 
L 283.249977 111.012758 
L 284.517507 108.163494 
L 285.785037 109.113249 
L 287.052566 116.236409 
L 288.320096 106.738862 
L 289.587626 115.286655 
L 290.855156 106.263985 
L 292.122686 108.638372 
L 293.390215 107.21374 
L 294.657745 114.811777 
L 295.925275 111.012758 
L 297.192805 113.862023 
L 298.460335 104.839353 
L 299.727864 108.638372 
L 300.995394 111.487636 
L 302.262924 111.012758 
L 303.530454 107.688617 
L 304.797984 109.588126 
L 306.065513 101.990089 
L 307.333043 112.912268 
L 308.600573 107.688617 
L 309.868103 104.364475 
L 311.135633 109.113249 
L 312.403162 106.738862 
L 313.670692 111.012758 
L 314.938222 107.21374 
L 316.205752 110.537881 
L 317.473282 105.789108 
L 318.740811 111.487636 
L 320.008341 105.31423 
L 321.275871 106.263985 
L 322.543401 110.537881 
L 323.810931 115.761532 
L 325.07846 110.063004 
L 326.34599 114.3369 
L 327.61352 101.040334 
L 330.14858 101.040334 
L 331.416109 104.364475 
L 332.683639 106.263985 
L 333.951169 103.889598 
L 335.218699 102.939843 
L 336.486229 111.962513 
L 337.753758 102.464966 
L 339.021288 114.811777 
L 340.288818 105.789108 
L 341.556348 110.537881 
L 342.823878 102.464966 
L 344.091407 108.638372 
L 345.358937 110.063004 
L 346.626467 108.638372 
L 347.893997 105.31423 
L 349.161527 102.464966 
L 350.429056 108.638372 
L 351.696586 104.839353 
L 352.964116 104.839353 
L 354.231646 105.789108 
L 355.499176 100.565457 
L 356.766705 106.738862 
L 358.034235 99.615702 
L 359.301765 106.263985 
L 360.569295 104.839353 
L 361.836824 106.738862 
L 363.104354 107.21374 
L 364.371884 99.615702 
L 365.639414 109.588126 
L 366.906944 101.515211 
L 368.174473 107.21374 
L 369.442003 101.515211 
L 370.709533 106.263985 
L 371.977063 110.063004 
L 373.244593 107.21374 
L 374.512122 109.588126 
L 375.779652 107.688617 
L 377.047182 101.040334 
L 378.314712 96.29156 
L 379.582242 98.665947 
L 382.117301 106.263985 
L 383.384831 101.990089 
L 384.652361 101.990089 
L 385.919891 109.113249 
L 387.18742 99.140825 
L 388.45495 112.437391 
L 389.72248 98.665947 
L 390.99001 104.839353 
L 392.25754 102.464966 
L 393.525069 109.588126 
L 394.792599 106.738862 
L 396.060129 106.263985 
L 397.327659 99.140825 
L 398.595189 98.665947 
L 399.862718 106.738862 
L 401.130248 103.889598 
L 402.397778 102.939843 
L 403.665308 102.939843 
L 404.932838 99.140825 
L 406.200367 104.839353 
L 407.467897 98.665947 
L 408.735427 101.515211 
L 410.002957 98.19107 
L 411.270487 98.665947 
L 412.538016 104.839353 
L 413.805546 100.090579 
L 415.073076 107.21374 
L 416.340606 104.839353 
L 417.608136 108.163494 
L 418.875665 101.040334 
L 420.143195 101.990089 
L 421.410725 104.364475 
L 422.678255 110.063004 
L 423.945785 110.537881 
L 425.213314 106.738862 
L 426.480844 97.241315 
L 427.748374 92.492542 
L 429.015904 98.19107 
L 430.283434 99.140825 
L 431.550963 107.688617 
L 432.818493 98.19107 
L 434.086023 101.990089 
L 435.353553 108.638372 
L 436.621082 99.140825 
L 437.888612 108.638372 
L 439.156142 102.939843 
L 440.423672 107.688617 
L 441.691202 98.19107 
L 442.958731 105.31423 
L 444.226261 101.040334 
L 445.493791 108.638372 
L 446.761321 99.615702 
L 448.028851 96.766438 
L 449.29638 100.565457 
L 450.56391 101.040334 
L 451.83144 103.414721 
L 453.09897 101.040334 
L 454.3665 98.19107 
L 455.634029 100.090579 
L 456.901559 98.665947 
L 458.169089 95.341806 
L 459.436619 97.716192 
L 460.704149 98.665947 
L 461.971678 103.889598 
L 463.239208 97.241315 
L 464.506738 102.464966 
L 465.774268 99.615702 
L 467.041798 105.789108 
L 468.309327 97.241315 
L 469.576857 99.140825 
L 470.844387 103.889598 
L 472.111917 101.040334 
L 473.379447 105.31423 
L 474.646976 104.364475 
L 475.914506 96.29156 
L 477.182036 89.1684 
L 478.449566 100.090579 
L 479.717096 103.414721 
L 480.984625 101.515211 
L 482.252155 96.29156 
L 483.519685 101.515211 
L 484.787215 104.364475 
L 486.054745 97.716192 
L 487.322274 104.839353 
L 488.589804 97.716192 
L 489.857334 101.515211 
L 491.124864 95.816683 
L 492.392394 102.464966 
L 493.659923 95.816683 
L 494.927453 104.839353 
L 496.194983 96.29156 
L 497.462513 96.766438 
L 498.730043 101.990089 
L 499.997572 105.31423 
L 501.265102 101.990089 
L 502.532632 96.766438 
L 503.800162 96.766438 
L 505.067692 96.29156 
L 506.335221 97.716192 
L 507.602751 97.241315 
L 508.870281 93.917174 
L 510.137811 101.040334 
L 511.405341 100.090579 
L 512.67287 91.067909 
L 513.9404 99.615702 
L 515.20793 103.414721 
L 516.47546 100.565457 
L 517.742989 94.866928 
L 519.010519 93.917174 
L 520.278049 102.464966 
L 521.545579 97.241315 
L 522.813109 103.414721 
L 524.080638 105.31423 
L 525.348168 92.967419 
L 526.615698 91.067909 
L 527.883228 94.866928 
L 529.150758 100.090579 
L 530.418287 100.090579 
L 531.685817 93.917174 
L 532.953347 100.090579 
L 534.220877 102.939843 
L 535.488407 97.241315 
L 536.755936 102.464966 
L 538.023466 96.766438 
L 539.290996 101.040334 
L 540.558526 94.392051 
L 541.826056 100.565457 
L 543.093585 97.716192 
L 544.361115 102.939843 
L 545.628645 97.716192 
L 546.896175 91.067909 
L 548.163705 98.19107 
L 549.431234 99.140825 
L 550.698764 100.565457 
L 551.966294 100.565457 
L 553.233824 93.917174 
L 554.501354 96.766438 
L 555.768883 96.766438 
L 557.036413 92.492542 
L 558.303943 93.442296 
L 559.571473 96.29156 
L 560.839003 100.565457 
L 562.106532 90.593032 
L 564.641592 103.414721 
L 565.909122 97.241315 
L 567.176652 99.615702 
L 568.444181 95.341806 
L 569.711711 99.615702 
L 570.979241 97.716192 
L 572.246771 102.464966 
L 573.514301 102.464966 
L 574.78183 93.917174 
L 576.04936 89.643277 
L 577.31689 97.241315 
L 578.58442 96.766438 
L 579.85195 100.090579 
L 581.119479 96.29156 
L 582.387009 94.866928 
L 583.654539 98.665947 
L 584.922069 94.392051 
L 586.189599 101.040334 
L 587.457128 92.492542 
L 588.724658 101.040334 
L 589.992188 94.866928 
L 591.259718 100.090579 
L 592.527247 97.716192 
L 593.794777 100.565457 
L 595.062307 98.19107 
L 596.329837 92.492542 
L 597.597367 100.565457 
L 598.864896 98.19107 
L 600.132426 94.392051 
L 601.399956 98.665947 
L 602.667486 90.593032 
L 603.935016 95.341806 
L 605.202545 95.816683 
L 605.202545 95.816683 
" style="fill:none;stroke:#1f77b4;stroke-linecap:square;stroke-width:1.5;"/>
   </g>
   <g id="line2d_15">
    <path clip-path="url(#pa6224f0443)" d="M 112.133455 473.502475 
L 113.400984 457.67323 
L 114.668514 457.220966 
L 115.936044 430.085117 
L 117.203574 386.667758 
L 118.471104 370.386249 
L 119.738633 358.175117 
L 121.006163 321.541721 
L 122.273693 306.843136 
L 123.541223 279.255023 
L 124.808753 258.903136 
L 127.343812 245.561343 
L 128.611342 226.566249 
L 129.878872 213.450589 
L 131.146401 204.405306 
L 132.413931 198.978136 
L 133.681461 201.465589 
L 134.948991 184.279551 
L 136.216521 185.410211 
L 137.48405 175.686532 
L 138.75158 179.983042 
L 140.01911 166.188985 
L 141.28664 175.234268 
L 142.55417 163.249268 
L 143.821699 165.058325 
L 145.089229 165.962853 
L 146.356759 160.083419 
L 147.624289 160.535683 
L 148.891819 153.751721 
L 150.159348 153.977853 
L 151.426878 155.560777 
L 152.694408 151.4904 
L 153.961938 150.35974 
L 155.229468 144.028042 
L 156.496997 146.06323 
L 157.764527 146.289362 
L 159.032057 143.575777 
L 160.299587 141.992853 
L 161.567117 146.741626 
L 162.834646 136.791815 
L 164.102176 137.922475 
L 165.369706 140.409928 
L 166.637236 152.168796 
L 167.904766 141.088325 
L 169.172295 137.244079 
L 170.439825 140.63606 
L 171.707355 134.304362 
L 172.974885 140.409928 
L 174.242415 134.530494 
L 175.509944 131.138513 
L 176.777474 137.244079 
L 178.045004 134.07823 
L 179.312534 133.173702 
L 180.580064 128.198796 
L 181.847593 130.912381 
L 183.115123 129.555589 
L 184.382653 128.65106 
L 185.650183 127.068136 
L 186.917713 127.5204 
L 188.185242 128.65106 
L 189.452772 124.580683 
L 190.720302 129.329457 
L 191.987832 124.354551 
L 193.255362 127.5204 
L 194.522891 127.5204 
L 195.790421 121.188702 
L 197.057951 125.711343 
L 198.325481 122.997758 
L 199.593011 125.032947 
L 200.86054 127.5204 
L 202.12807 127.294268 
L 203.3956 126.163608 
L 204.66313 125.711343 
L 205.930659 129.781721 
L 207.198189 127.294268 
L 208.465719 123.676155 
L 209.733249 129.329457 
L 211.000779 121.640966 
L 212.268308 123.902287 
L 213.535838 125.259079 
L 214.803368 123.676155 
L 216.070898 124.580683 
L 217.338428 127.294268 
L 218.605957 129.555589 
L 219.873487 127.068136 
L 221.141017 120.058042 
L 222.408547 121.640966 
L 223.676077 125.937475 
L 226.211136 120.284174 
L 227.478666 128.65106 
L 228.746196 120.058042 
L 230.013726 120.96257 
L 231.281255 120.736438 
L 232.548785 126.842004 
L 233.816315 120.510306 
L 235.083845 118.475117 
L 236.351375 127.746532 
L 237.618904 119.153513 
L 238.886434 121.867098 
L 240.153964 120.058042 
L 241.421494 120.284174 
L 242.689024 122.997758 
L 243.956553 118.248985 
L 245.224083 119.379645 
L 246.491613 118.475117 
L 247.759143 120.736438 
L 249.026673 121.188702 
L 250.294202 118.475117 
L 251.561732 119.605777 
L 252.829262 119.379645 
L 254.096792 120.284174 
L 255.364322 119.831909 
L 256.631851 122.09323 
L 257.899381 117.796721 
L 259.166911 123.676155 
L 260.434441 116.66606 
L 261.701971 116.213796 
L 262.9695 117.570589 
L 264.23703 120.510306 
L 265.50456 122.09323 
L 266.77209 120.510306 
L 268.03962 116.213796 
L 269.307149 115.987664 
L 270.574679 118.022853 
L 271.842209 119.831909 
L 273.109739 117.344457 
L 274.377269 120.058042 
L 275.644798 118.022853 
L 276.912328 121.414834 
L 278.179858 116.213796 
L 279.447388 120.96257 
L 280.714918 115.5354 
L 281.982447 117.118325 
L 283.249977 115.987664 
L 284.517507 117.796721 
L 285.785037 119.153513 
L 287.052566 113.500211 
L 288.320096 117.570589 
L 289.587626 116.213796 
L 290.855156 113.726343 
L 292.122686 117.118325 
L 293.390215 116.892192 
L 294.657745 116.892192 
L 295.925275 112.595683 
L 297.192805 113.952475 
L 298.460335 115.987664 
L 299.727864 119.379645 
L 300.995394 117.796721 
L 302.262924 114.178608 
L 303.530454 114.630872 
L 304.797984 112.821815 
L 306.065513 119.153513 
L 307.333043 114.40474 
L 308.600573 118.475117 
L 309.868103 114.630872 
L 311.135633 116.439928 
L 312.403162 113.952475 
L 313.670692 118.022853 
L 314.938222 116.439928 
L 316.205752 117.344457 
L 317.473282 112.821815 
L 318.740811 117.570589 
L 320.008341 116.213796 
L 322.543401 114.40474 
L 323.810931 116.892192 
L 325.07846 115.5354 
L 326.34599 115.309268 
L 327.61352 115.761532 
L 328.88105 115.761532 
L 330.14858 110.786626 
L 331.416109 115.309268 
L 332.683639 110.560494 
L 333.951169 115.309268 
L 335.218699 116.66606 
L 336.486229 111.917287 
L 337.753758 116.66606 
L 339.021288 113.274079 
L 340.288818 111.691155 
L 341.556348 115.5354 
L 342.823878 113.274079 
L 344.091407 113.500211 
L 345.358937 111.917287 
L 346.626467 115.987664 
L 347.893997 112.143419 
L 349.161527 111.465023 
L 350.429056 112.369551 
L 351.696586 111.012758 
L 352.964116 110.334362 
L 354.231646 111.012758 
L 355.499176 112.595683 
L 356.766705 111.465023 
L 358.034235 109.655966 
L 359.301765 111.691155 
L 360.569295 110.334362 
L 361.836824 112.595683 
L 363.104354 111.465023 
L 364.371884 115.5354 
L 365.639414 113.500211 
L 366.906944 110.10823 
L 368.174473 113.952475 
L 369.442003 114.40474 
L 370.709533 113.274079 
L 371.977063 113.047947 
L 373.244593 111.465023 
L 374.512122 112.595683 
L 375.779652 115.987664 
L 377.047182 115.761532 
L 378.314712 115.309268 
L 379.582242 107.168513 
L 380.849771 109.655966 
L 382.117301 107.394645 
L 383.384831 112.369551 
L 384.652361 115.5354 
L 385.919891 108.073042 
L 387.18742 111.238891 
L 388.45495 111.238891 
L 389.72248 113.274079 
L 390.99001 114.857004 
L 392.25754 113.500211 
L 393.525069 115.987664 
L 394.792599 111.691155 
L 396.060129 111.917287 
L 397.327659 111.465023 
L 398.595189 110.786626 
L 399.862718 109.203702 
L 401.130248 109.203702 
L 402.397778 108.97757 
L 403.665308 109.429834 
L 404.932838 107.168513 
L 406.200367 110.560494 
L 407.467897 107.620777 
L 408.735427 109.655966 
L 410.002957 110.10823 
L 411.270487 112.369551 
L 412.538016 109.429834 
L 413.805546 114.857004 
L 415.073076 116.66606 
L 416.340606 108.299174 
L 417.608136 107.620777 
L 418.875665 114.857004 
L 420.143195 111.238891 
L 421.410725 111.238891 
L 422.678255 110.560494 
L 423.945785 112.143419 
L 425.213314 114.630872 
L 426.480844 108.073042 
L 427.748374 110.560494 
L 429.015904 110.560494 
L 430.283434 110.786626 
L 431.550963 107.846909 
L 432.818493 110.10823 
L 434.086023 109.429834 
L 435.353553 109.429834 
L 436.621082 111.465023 
L 437.888612 108.299174 
L 439.156142 108.073042 
L 440.423672 111.465023 
L 441.691202 109.655966 
L 442.958731 109.655966 
L 444.226261 113.047947 
L 445.493791 113.274079 
L 446.761321 108.299174 
L 448.028851 108.525306 
L 449.29638 109.429834 
L 450.56391 110.786626 
L 451.83144 106.037853 
L 453.09897 107.620777 
L 454.3665 108.073042 
L 455.634029 106.263985 
L 456.901559 111.238891 
L 458.169089 107.394645 
L 459.436619 114.178608 
L 460.704149 113.500211 
L 461.971678 110.334362 
L 463.239208 112.369551 
L 464.506738 110.10823 
L 465.774268 104.454928 
L 467.041798 108.299174 
L 468.309327 108.299174 
L 469.576857 105.811721 
L 470.844387 107.394645 
L 472.111917 108.525306 
L 473.379447 111.917287 
L 474.646976 112.143419 
L 475.914506 106.263985 
L 477.182036 111.238891 
L 478.449566 106.942381 
L 479.717096 111.465023 
L 480.984625 107.394645 
L 482.252155 107.394645 
L 483.519685 108.751438 
L 484.787215 105.133325 
L 486.054745 107.394645 
L 487.322274 109.203702 
L 488.589804 109.203702 
L 489.857334 114.630872 
L 491.124864 109.655966 
L 492.392394 107.846909 
L 493.659923 108.525306 
L 494.927453 111.238891 
L 496.194983 107.620777 
L 497.462513 107.394645 
L 498.730043 108.299174 
L 499.997572 108.073042 
L 501.265102 106.942381 
L 502.532632 104.002664 
L 503.800162 105.811721 
L 505.067692 104.002664 
L 506.335221 105.359457 
L 507.602751 104.907192 
L 508.870281 109.429834 
L 510.137811 104.68106 
L 511.405341 106.263985 
L 512.67287 106.942381 
L 513.9404 110.560494 
L 515.20793 107.168513 
L 516.47546 106.037853 
L 517.742989 106.942381 
L 519.010519 105.133325 
L 520.278049 104.454928 
L 521.545579 105.133325 
L 522.813109 108.97757 
L 524.080638 110.334362 
L 525.348168 101.741343 
L 526.615698 109.203702 
L 527.883228 104.002664 
L 529.150758 106.942381 
L 530.418287 106.037853 
L 531.685817 104.454928 
L 532.953347 107.394645 
L 534.220877 103.098136 
L 535.488407 106.490117 
L 536.755936 104.002664 
L 538.023466 102.41974 
L 539.290996 110.560494 
L 540.558526 108.073042 
L 541.826056 104.228796 
L 543.093585 107.394645 
L 544.361115 108.073042 
L 545.628645 106.716249 
L 546.896175 108.751438 
L 548.163705 106.490117 
L 549.431234 106.263985 
L 550.698764 104.907192 
L 551.966294 105.585589 
L 553.233824 106.490117 
L 554.501354 106.037853 
L 555.768883 108.97757 
L 557.036413 105.133325 
L 559.571473 102.872004 
L 560.839003 109.203702 
L 562.106532 106.716249 
L 563.374062 110.560494 
L 564.641592 103.776532 
L 565.909122 109.655966 
L 567.176652 105.133325 
L 568.444181 105.811721 
L 569.711711 104.454928 
L 570.979241 108.299174 
L 572.246771 106.716249 
L 573.514301 111.238891 
L 574.78183 101.967475 
L 576.04936 106.263985 
L 577.31689 103.776532 
L 578.58442 106.263985 
L 579.85195 106.037853 
L 581.119479 107.394645 
L 582.387009 105.359457 
L 583.654539 103.776532 
L 584.922069 106.037853 
L 586.189599 103.776532 
L 587.457128 104.907192 
L 588.724658 107.394645 
L 589.992188 107.846909 
L 591.259718 104.68106 
L 592.527247 106.942381 
L 593.794777 105.585589 
L 595.062307 105.359457 
L 596.329837 105.811721 
L 597.597367 107.620777 
L 598.864896 107.846909 
L 600.132426 104.002664 
L 601.399956 105.359457 
L 602.667486 108.073042 
L 603.935016 104.68106 
L 605.202545 107.168513 
L 605.202545 107.168513 
" style="fill:none;stroke:#ff7f0e;stroke-linecap:square;stroke-width:1.5;"/>
   </g>
   <g id="patch_3">
    <path d="M 87.48 511.9992 
L 87.48 69.0336 
" style="fill:none;stroke:#000000;stroke-linecap:square;stroke-linejoin:miter;stroke-width:0.8;"/>
   </g>
   <g id="patch_4">
    <path d="M 629.856 511.9992 
L 629.856 69.0336 
" style="fill:none;stroke:#000000;stroke-linecap:square;stroke-linejoin:miter;stroke-width:0.8;"/>
   </g>
   <g id="patch_5">
    <path d="M 87.48 511.9992 
L 629.856 511.9992 
" style="fill:none;stroke:#000000;stroke-linecap:square;stroke-linejoin:miter;stroke-width:0.8;"/>
   </g>
   <g id="patch_6">
    <path d="M 87.48 69.0336 
L 629.856 69.0336 
" style="fill:none;stroke:#000000;stroke-linecap:square;stroke-linejoin:miter;stroke-width:0.8;"/>
   </g>
   <g id="text_16">
    <!-- Accuracy VS Samples Trained (Epoch Size: 40000) -->
    <defs>
     <path d="M 28.609375 0 
L 0.78125 72.90625 
L 11.078125 72.90625 
L 34.1875 11.53125 
L 57.328125 72.90625 
L 67.578125 72.90625 
L 39.796875 0 
z
" id="DejaVuSans-86"/>
     <path d="M 31 75.875 
Q 24.46875 64.65625 21.28125 53.65625 
Q 18.109375 42.671875 18.109375 31.390625 
Q 18.109375 20.125 21.3125 9.0625 
Q 24.515625 -2 31 -13.1875 
L 23.1875 -13.1875 
Q 15.875 -1.703125 12.234375 9.375 
Q 8.59375 20.453125 8.59375 31.390625 
Q 8.59375 42.28125 12.203125 53.3125 
Q 15.828125 64.359375 23.1875 75.875 
z
" id="DejaVuSans-40"/>
     <path d="M 9.8125 72.90625 
L 55.90625 72.90625 
L 55.90625 64.59375 
L 19.671875 64.59375 
L 19.671875 43.015625 
L 54.390625 43.015625 
L 54.390625 34.71875 
L 19.671875 34.71875 
L 19.671875 8.296875 
L 56.78125 8.296875 
L 56.78125 0 
L 9.8125 0 
z
" id="DejaVuSans-69"/>
     <path d="M 54.890625 33.015625 
L 54.890625 0 
L 45.90625 0 
L 45.90625 32.71875 
Q 45.90625 40.484375 42.875 44.328125 
Q 39.84375 48.1875 33.796875 48.1875 
Q 26.515625 48.1875 22.3125 43.546875 
Q 18.109375 38.921875 18.109375 30.90625 
L 18.109375 0 
L 9.078125 0 
L 9.078125 75.984375 
L 18.109375 75.984375 
L 18.109375 46.1875 
Q 21.34375 51.125 25.703125 53.5625 
Q 30.078125 56 35.796875 56 
Q 45.21875 56 50.046875 50.171875 
Q 54.890625 44.34375 54.890625 33.015625 
z
" id="DejaVuSans-104"/>
     <path d="M 5.515625 54.6875 
L 48.1875 54.6875 
L 48.1875 46.484375 
L 14.40625 7.171875 
L 48.1875 7.171875 
L 48.1875 0 
L 4.296875 0 
L 4.296875 8.203125 
L 38.09375 47.515625 
L 5.515625 47.515625 
z
" id="DejaVuSans-122"/>
     <path d="M 11.71875 12.40625 
L 22.015625 12.40625 
L 22.015625 0 
L 11.71875 0 
z
M 11.71875 51.703125 
L 22.015625 51.703125 
L 22.015625 39.3125 
L 11.71875 39.3125 
z
" id="DejaVuSans-58"/>
     <path d="M 8.015625 75.875 
L 15.828125 75.875 
Q 23.140625 64.359375 26.78125 53.3125 
Q 30.421875 42.28125 30.421875 31.390625 
Q 30.421875 20.453125 26.78125 9.375 
Q 23.140625 -1.703125 15.828125 -13.1875 
L 8.015625 -13.1875 
Q 14.5 -2 17.703125 9.0625 
Q 20.90625 20.125 20.90625 31.390625 
Q 20.90625 42.671875 17.703125 53.65625 
Q 14.5 64.65625 8.015625 75.875 
z
" id="DejaVuSans-41"/>
    </defs>
    <g transform="translate(206.945813 63.0336)scale(0.12 -0.12)">
     <use xlink:href="#DejaVuSans-65"/>
     <use x="68.392578" xlink:href="#DejaVuSans-99"/>
     <use x="123.373047" xlink:href="#DejaVuSans-99"/>
     <use x="178.353516" xlink:href="#DejaVuSans-117"/>
     <use x="241.732422" xlink:href="#DejaVuSans-114"/>
     <use x="282.845703" xlink:href="#DejaVuSans-97"/>
     <use x="344.125" xlink:href="#DejaVuSans-99"/>
     <use x="399.105469" xlink:href="#DejaVuSans-121"/>
     <use x="458.285156" xlink:href="#DejaVuSans-32"/>
     <use x="490.072266" xlink:href="#DejaVuSans-86"/>
     <use x="558.480469" xlink:href="#DejaVuSans-83"/>
     <use x="621.957031" xlink:href="#DejaVuSans-32"/>
     <use x="653.744141" xlink:href="#DejaVuSans-83"/>
     <use x="717.220703" xlink:href="#DejaVuSans-97"/>
     <use x="778.5" xlink:href="#DejaVuSans-109"/>
     <use x="875.912109" xlink:href="#DejaVuSans-112"/>
     <use x="939.388672" xlink:href="#DejaVuSans-108"/>
     <use x="967.171875" xlink:href="#DejaVuSans-101"/>
     <use x="1028.695312" xlink:href="#DejaVuSans-115"/>
     <use x="1080.794922" xlink:href="#DejaVuSans-32"/>
     <use x="1112.582031" xlink:href="#DejaVuSans-84"/>
     <use x="1173.447266" xlink:href="#DejaVuSans-114"/>
     <use x="1214.560547" xlink:href="#DejaVuSans-97"/>
     <use x="1275.839844" xlink:href="#DejaVuSans-105"/>
     <use x="1303.623047" xlink:href="#DejaVuSans-110"/>
     <use x="1367.001953" xlink:href="#DejaVuSans-101"/>
     <use x="1428.525391" xlink:href="#DejaVuSans-100"/>
     <use x="1492.001953" xlink:href="#DejaVuSans-32"/>
     <use x="1523.789062" xlink:href="#DejaVuSans-40"/>
     <use x="1562.802734" xlink:href="#DejaVuSans-69"/>
     <use x="1625.986328" xlink:href="#DejaVuSans-112"/>
     <use x="1689.462891" xlink:href="#DejaVuSans-111"/>
     <use x="1750.644531" xlink:href="#DejaVuSans-99"/>
     <use x="1805.625" xlink:href="#DejaVuSans-104"/>
     <use x="1869.003906" xlink:href="#DejaVuSans-32"/>
     <use x="1900.791016" xlink:href="#DejaVuSans-83"/>
     <use x="1964.267578" xlink:href="#DejaVuSans-105"/>
     <use x="1992.050781" xlink:href="#DejaVuSans-122"/>
     <use x="2044.541016" xlink:href="#DejaVuSans-101"/>
     <use x="2106.064453" xlink:href="#DejaVuSans-58"/>
     <use x="2139.755859" xlink:href="#DejaVuSans-32"/>
     <use x="2171.542969" xlink:href="#DejaVuSans-52"/>
     <use x="2235.166016" xlink:href="#DejaVuSans-48"/>
     <use x="2298.789062" xlink:href="#DejaVuSans-48"/>
     <use x="2362.412109" xlink:href="#DejaVuSans-48"/>
     <use x="2426.035156" xlink:href="#DejaVuSans-48"/>
     <use x="2489.658203" xlink:href="#DejaVuSans-41"/>
    </g>
   </g>
   <g id="legend_1">
    <g id="patch_7">
     <path d="M 94.48 106.38985 
L 176.625313 106.38985 
Q 178.625313 106.38985 178.625313 104.38985 
L 178.625313 76.0336 
Q 178.625313 74.0336 176.625313 74.0336 
L 94.48 74.0336 
Q 92.48 74.0336 92.48 76.0336 
L 92.48 104.38985 
Q 92.48 106.38985 94.48 106.38985 
z
" style="fill:#ffffff;opacity:0.8;stroke:#cccccc;stroke-linejoin:miter;"/>
    </g>
    <g id="line2d_16">
     <path d="M 96.48 82.132037 
L 116.48 82.132037 
" style="fill:none;stroke:#1f77b4;stroke-linecap:square;stroke-width:1.5;"/>
    </g>
    <g id="line2d_17"/>
    <g id="text_17">
     <!-- Train -->
     <g transform="translate(124.48 85.632037)scale(0.1 -0.1)">
      <use xlink:href="#DejaVuSans-84"/>
      <use x="60.865234" xlink:href="#DejaVuSans-114"/>
      <use x="101.978516" xlink:href="#DejaVuSans-97"/>
      <use x="163.257812" xlink:href="#DejaVuSans-105"/>
      <use x="191.041016" xlink:href="#DejaVuSans-110"/>
     </g>
    </g>
    <g id="line2d_18">
     <path d="M 96.48 96.810162 
L 116.48 96.810162 
" style="fill:none;stroke:#ff7f0e;stroke-linecap:square;stroke-width:1.5;"/>
    </g>
    <g id="line2d_19"/>
    <g id="text_18">
     <!-- Validation -->
     <defs>
      <path d="M 18.3125 70.21875 
L 18.3125 54.6875 
L 36.8125 54.6875 
L 36.8125 47.703125 
L 18.3125 47.703125 
L 18.3125 18.015625 
Q 18.3125 11.328125 20.140625 9.421875 
Q 21.96875 7.515625 27.59375 7.515625 
L 36.8125 7.515625 
L 36.8125 0 
L 27.59375 0 
Q 17.1875 0 13.234375 3.875 
Q 9.28125 7.765625 9.28125 18.015625 
L 9.28125 47.703125 
L 2.6875 47.703125 
L 2.6875 54.6875 
L 9.28125 54.6875 
L 9.28125 70.21875 
z
" id="DejaVuSans-116"/>
     </defs>
     <g transform="translate(124.48 100.310162)scale(0.1 -0.1)">
      <use xlink:href="#DejaVuSans-86"/>
      <use x="68.298828" xlink:href="#DejaVuSans-97"/>
      <use x="129.578125" xlink:href="#DejaVuSans-108"/>
      <use x="157.361328" xlink:href="#DejaVuSans-105"/>
      <use x="185.144531" xlink:href="#DejaVuSans-100"/>
      <use x="248.621094" xlink:href="#DejaVuSans-97"/>
      <use x="309.900391" xlink:href="#DejaVuSans-116"/>
      <use x="349.109375" xlink:href="#DejaVuSans-105"/>
      <use x="376.892578" xlink:href="#DejaVuSans-111"/>
      <use x="438.074219" xlink:href="#DejaVuSans-110"/>
     </g>
    </g>
   </g>
  </g>
 </g>
 <defs>
  <clipPath id="pa6224f0443">
   <rect height="442.9656" width="542.376" x="87.48" y="69.0336"/>
  </clipPath>
 </defs>
</svg>
